<svg xmlns="http://www.w3.org/2000/svg" width="19" height="23"><g fill="#444751" fill-rule="evenodd"><path fill-rule="nonzero" d="M7.513 6.417c-1.56 0-2.935 1.071-3.375 2.632l-1.48 5.241c-.118.42-.178.856-.178 1.293 0 2.532 1.969 4.584 4.398 4.584h5.244c.42 0 .838-.063 1.241-.187 2.33-.714 3.664-3.261 2.979-5.69l-1.48-5.241c-.44-1.56-1.814-2.632-3.375-2.632H7.513zm0-1.834h3.974c2.341 0 4.403 1.608 5.063 3.948l1.48 5.242c.96 3.4-.908 6.966-4.17 7.966-.564.173-1.15.261-1.738.261H6.878C3.477 22 .72 19.127.72 15.583c0-.613.085-1.222.25-1.81L2.45 8.53c.66-2.34 2.722-3.948 5.063-3.948z"/><path fill-rule="nonzero" d="M5.31 2.75a.325.325 0 0 0-.15.037.357.357 0 0 0-.151.47c.39.813 1.187 1.326 2.06 1.326h4.862c.873 0 1.67-.513 2.06-1.326a.362.362 0 0 0 .036-.157c0-.193-.15-.35-.336-.35H5.31zm0-1.833h8.38c1.158 0 2.096.977 2.096 2.183 0 .34-.076.673-.221.977-.689 1.434-2.095 2.34-3.634 2.34H7.07c-1.539 0-2.945-.906-3.634-2.34-.517-1.079-.098-2.39.937-2.93.291-.151.612-.23.938-.23z"/><path d="M12.076 14.759c0-1.462-.934-1.849-2.358-2.292-.764-.254-1.126-.465-1.126-.874 0-.399.309-.631.85-.631.468 0 1.041.188 1.636.62l.84-1.096c-.479-.399-1.148-.72-1.807-.863v-.815a.558.558 0 0 0-1.115 0v.748c-1.253.155-1.965 1.007-1.965 2.136 0 1.406 1.062 1.827 2.263 2.214.87.266 1.21.487 1.21.963 0 .432-.35.698-.881.698-.574 0-1.296-.266-1.89-.853L6.86 15.8c.627.642 1.36 1.007 2.135 1.13v.681a.558.558 0 1 0 1.115 0v-.682c1.211-.177 1.965-.985 1.965-2.17z"/></g></svg>