<svg width="68" height="25" xmlns="http://www.w3.org/2000/svg"><g fill="#0091EA" fill-rule="evenodd"><path d="M0 22.868V.679A.68.68 0 0 1 .68 0h5.414a.68.68 0 0 1 .527.252L17.42 13.585V.679A.68.68 0 0 1 18.1 0h5.058a.68.68 0 0 1 .68.68v22.188a.68.68 0 0 1-.68.68h-5.414a.68.68 0 0 1-.528-.253L6.418 9.962v12.906a.68.68 0 0 1-.68.68H.68a.68.68 0 0 1-.679-.68zM49.169 6.34h4.623c.609 0 1.143.404 1.308.99l3.16 11.236L61.417 7.33c.165-.586.7-.99 1.308-.99h4.623a.566.566 0 0 1 .541.731l-4.85 15.836a.906.906 0 0 1-.867.64h-7.828a.906.906 0 0 1-.866-.64L48.628 7.07a.566.566 0 0 1 .54-.731zM32.57 14.837c0 .557.1 1.075.301 1.555.201.48.475.897.822 1.254.346.357.76.635 1.24.836.481.2 1.001.3 1.56.3.537 0 1.045-.1 1.526-.3.48-.2.894-.48 1.241-.836.347-.357.626-.77.838-1.238a3.6 3.6 0 0 0 .319-1.504c0-.536-.106-1.043-.319-1.522a4.255 4.255 0 0 0-.838-1.254 3.689 3.689 0 0 0-1.24-.836c-.482-.201-.99-.301-1.527-.301-.559 0-1.079.1-1.56.3-.48.201-.894.48-1.24.837a4.12 4.12 0 0 0-.822 1.22 3.652 3.652 0 0 0-.302 1.489zm8.513-8.497h4.557a.68.68 0 0 1 .68.679v15.849a.68.68 0 0 1-.68.68h-4.542a.68.68 0 0 1-.664-.823l.373-1.733c-.265.333-1.112 1.151-1.418 1.42C38.201 23.453 36.711 24 34.951 24c-1.253 0-2.404-.229-3.455-.686a8.33 8.33 0 0 1-2.75-1.923 8.874 8.874 0 0 1-1.827-2.91c-.436-1.114-.654-2.329-.654-3.644 0-1.227.212-2.392.637-3.495a8.982 8.982 0 0 1 1.777-2.893 8.38 8.38 0 0 1 2.717-1.956c1.05-.48 2.213-.72 3.487-.72 1.885 0 3.509.682 4.83 2.013.184.185.923 1.015 1.094 1.225l-.39-1.852a.68.68 0 0 1 .666-.82z"/></g></svg>